# xmcd CD database file
#
# Track frame offsets:
#	201
#	14828
#	25881
#	39746
#	49053
#	60040
#	72886
#	85781
#	109553
#	119804
#	131565
#	143860
#	155523
#	167738
#	180561
#	188189
#	199245
#	211754
#	224392
#	237404
#
# Disc length: 3389 seconds
#
# Revision: 0
# Processed by: cddbd v1.5.1PL2 Copyright (c) Steve Scherf et al.
# Submitted via: CDex 1.51
#
DISCID=220d3b14
DTITLE=Various Artist - Country Roads (America In Story And Song) Disc 2
DYEAR=1900
DGENRE=Country
TTITLE0=Lee Greenwood - God Bless The U.S.A.
TTITLE1=Pat Boone - America The Beautiful
TTITLE2=LeAnn Rimes - God Bless America
TTITLE3=The Browns - This Land Is Your Land
TTITLE4=Lee Greenwood - The Pledge Of Allegiance
TTITLE5=Tammy Wynette - Battle Hymn Of The Republic
TTITLE6=Merle Haggard - The Fightin' Side Of Me
TTITLE7=Charlie Daniels - America, I believe In You
TTITLE8=Loretta Lynn - Dear Uncle Sam
TTITLE9=Tex Ritters And The Starlighters - The Gettysburg Address
TTITLE10=Eddy Arnold - The Cattle Call
TTITLE11=Frankie Lane And The Muleskinners - Mule Train
TTITLE12=The Sons Of The Pioneers - Cool Water
TTITLE13=Marty Robbins - Tumbling Tumbleweeds
TTITLE14=Fess Parker - The Ballad Of Davy Crockett
TTITLE15=Riders In The Sky - Home On The Range
TTITLE16=Roy Rogers With Lorrie Morgan - Don't Fence Me In
TTITLE17=Willie Nelson And Leon Russell - You Are My Sunshine
TTITLE18=Glen Campbell - Shenandoah
TTITLE19=Johnny Cash - (Ghost) Riders In The Sky
EXTD=
EXTT0=
EXTT1=
EXTT2=
EXTT3=
EXTT4=
EXTT5=
EXTT6=
EXTT7=
EXTT8=
EXTT9=
EXTT10=
EXTT11=
EXTT12=
EXTT13=
EXTT14=
EXTT15=
EXTT16=
EXTT17=
EXTT18=
EXTT19=
PLAYORDER=
